# Blender v2.93.5 OBJ File: 'untitled.blend'
# www.blender.org
mtllib carpa.mtl
o Cube_Cube.001
v -0.250524 1.427681 -1.957706
v -0.142093 1.466067 -0.307091
v -0.092839 1.427681 -0.690955
v -0.092853 1.338113 -0.473432
v -0.092884 1.146181 -0.447841
v -0.092851 1.350908 -0.946864
v -0.250587 1.286931 -1.497069
v -0.250598 1.261340 -1.842546
v -0.145222 1.504454 -0.140750
v -0.145231 1.466067 0.358273
v -0.145202 1.581227 0.217523
v -0.250421 1.657999 0.729341
v -0.045932 1.542840 1.126001
v -0.045969 1.069408 1.394705
v -0.045957 1.222954 1.497069
v -0.045946 1.363704 1.573842
v -0.045938 1.466068 1.599433
v -0.045944 1.389295 1.906524
v -0.045940 1.440477 2.098456
v -0.045923 1.657999 1.868137
v -0.017519 2.054658 1.074819
v -0.083720 2.425727 0.601387
v -0.083689 2.630455 0.051182
v -0.083648 2.899159 -0.255909
v -0.083654 2.860773 -0.460637
v -0.083720 2.425727 -0.524614
v -0.250146 2.272182 -1.074819
v -0.250312 1.901113 -1.573842
v -0.250312 1.901113 -1.573842
v -0.250524 1.427681 -1.957706
v -0.144618 1.466067 -0.307091
v -0.092839 1.427681 -0.690955
v -0.092853 1.338113 -0.473432
v -0.092884 1.146181 -0.447841
v -0.092851 1.350908 -0.946864
v -0.250587 1.286931 -1.497069
v -0.250598 1.261340 -1.842546
v -0.145222 1.504454 -0.140750
v -0.145231 1.466067 0.358273
v -0.145202 1.581227 0.217523
v -0.250421 1.657999 0.729341
v -0.045932 1.542840 1.126001
v -0.045969 1.069408 1.394705
v -0.045957 1.222954 1.497069
v -0.045946 1.363704 1.573842
v -0.045938 1.466068 1.599433
v -0.045944 1.389295 1.906524
v -0.045940 1.440477 2.098456
v -0.045923 1.657999 1.868137
v -0.017519 2.054658 1.074819
v -0.083720 2.425727 0.601387
v -0.083689 2.630455 0.051182
v -0.083648 2.899159 -0.255909
v -0.083654 2.860773 -0.460637
v -0.083720 2.425727 -0.524614
v -0.250146 2.272182 -1.074819
v -0.250312 1.901113 -1.573842
v 0.257139 1.427454 -1.957706
v 0.136623 1.465840 -0.307091
v 0.089129 1.427454 -0.690955
v 0.089115 1.337886 -0.473432
v 0.089084 1.145954 -0.447841
v 0.089117 1.350681 -0.946864
v 0.257076 1.286704 -1.497069
v 0.257065 1.261113 -1.842546
v 0.141008 1.504227 -0.140750
v 0.140999 1.465840 0.358273
v 0.141028 1.580999 0.217523
v 0.257242 1.657772 0.729341
v 0.042138 1.542613 1.126001
v 0.042101 1.069181 1.394705
v 0.042113 1.222726 1.497069
v 0.042124 1.363477 1.573842
v 0.042132 1.465840 1.599433
v 0.042126 1.389068 1.906524
v 0.042130 1.440249 2.098456
v 0.042147 1.657772 1.868137
v 0.048121 2.054431 1.074819
v 0.089418 2.425500 0.601387
v 0.089449 2.630227 0.051182
v 0.089490 2.898932 -0.255909
v 0.089484 2.860546 -0.460637
v 0.089418 2.425500 -0.524614
v 0.257517 2.271954 -1.074819
v 0.257351 1.900886 -1.573842
vt 0.000000 0.000000
vt 0.000000 0.000000
vt 0.000000 0.000000
vt 0.000000 0.000000
vt 0.000000 0.000000
vt 0.000000 0.000000
vt 0.000000 0.000000
vt 0.000000 0.000000
vt 0.000000 0.000000
vt 0.000000 0.000000
vt 0.000000 0.000000
vt 0.000000 0.000000
vt 0.000000 0.000000
vt 0.000000 0.000000
vt 0.000000 0.000000
vt 0.000000 0.000000
vt 0.000000 0.000000
vt 0.000000 0.000000
vt 0.000000 0.000000
vt 0.000000 0.000000
vt 0.000000 0.000000
vt 0.000000 0.000000
vt 0.000000 0.000000
vt 0.000000 0.000000
vt 0.000000 0.000000
vt 0.000000 0.000000
vt 0.000000 0.000000
vt 0.000000 0.000000
vt 0.000000 0.000000
vt 0.000000 0.000000
vt 0.000000 0.000000
vt 0.000000 0.000000
vt 0.000000 0.000000
vt 0.000000 0.000000
vt 0.000000 0.000000
vt 0.000000 0.000000
vt 0.000000 0.000000
vt 0.000000 0.000000
vt 0.000000 0.000000
vt 0.000000 0.000000
vt 0.000000 0.000000
vt 0.000000 0.000000
vt 0.000000 0.000000
vt 0.000000 0.000000
vt 0.000000 0.000000
vt 0.000000 0.000000
vt 0.000000 0.000000
vt 0.000000 0.000000
vt 0.000000 0.000000
vt 0.000000 0.000000
vt 0.000000 0.000000
vt 0.000000 0.000000
vt 0.000000 0.000000
vt 0.000000 0.000000
vt 0.000000 0.000000
vt 0.000000 0.000000
vt 0.000000 0.000000
vt 0.000000 0.000000
vt 0.000000 0.000000
vt 0.000000 0.000000
vt 0.000000 0.000000
vt 0.000000 0.000000
vt 0.000000 0.000000
vt 0.000000 0.000000
vt 0.000000 0.000000
vt 0.000000 0.000000
vt 0.000000 0.000000
vt 0.000000 0.000000
vt 0.000000 0.000000
vt 0.000000 0.000000
vt 0.000000 0.000000
vt 0.000000 0.000000
vt 0.000000 0.000000
vt 0.000000 0.000000
vt 0.000000 0.000000
vt 0.000000 0.000000
vt 0.000000 0.000000
vt 0.000000 0.000000
vt 0.000000 0.000000
vt 0.000000 0.000000
vt 0.000000 0.000000
vt 0.000000 0.000000
vt 0.000000 0.000000
vt 0.000000 0.000000
vn 0.0000 0.0000 1.0000
vn -0.0013 -0.9829 0.1843
vn 1.0000 -0.0001 0.0000
vn 0.0000 -0.9744 0.2249
vn 0.0000 -0.9950 0.0995
vn -1.0000 0.0001 -0.0000
vn -0.0002 -0.1322 -0.9912
vn -0.0002 -0.1455 0.9894
vn 0.0012 0.9252 0.3796
vn -0.0006 -0.9632 0.2688
vn 0.0007 0.9933 -0.1155
vn -0.0003 -0.6298 0.7768
vn 0.0004 0.9973 -0.0739
vn 0.0012 0.4789 -0.8779
vn -0.0004 -0.8025 0.5967
vn 0.0003 0.5692 0.8222
vn 0.0014 0.5547 -0.8320
vn 0.0006 0.2425 -0.9701
vn 0.0013 0.4936 0.8697
vn 0.0025 0.9701 0.2425
vn 0.0007 0.9603 0.2788
vn 0.0025 0.9662 -0.2577
vn 0.0006 0.9889 -0.1483
vn -0.0019 -0.7270 -0.6866
vn -0.0006 -0.7740 -0.6332
vn -0.0026 -0.8944 -0.4473
vn 0.0008 0.9971 0.0767
vn -0.0015 -0.7871 -0.6169
vn 0.0008 0.9744 -0.2249
vn -0.0012 -0.9372 -0.3487
vn 0.0010 0.9950 -0.0995
vn -0.0010 -0.7526 -0.6585
vn -0.0012 -0.9247 -0.3807
vn -0.9988 0.0488 -0.0000
vn 0.9970 0.0779 0.0000
vn 1.0000 -0.0002 0.0000
vn 1.0000 -0.0003 0.0000
vn 0.9985 -0.0546 0.0085
vn -0.9999 0.0115 -0.0018
vn -0.9963 0.0224 -0.0831
vn 0.9964 -0.0023 -0.0847
vn -1.0000 0.0003 -0.0000
vn -1.0000 0.0002 -0.0000
vn 0.8816 -0.4504 -0.1410
vn -0.8694 -0.4758 -0.1328
usemtl None
s off
f 13/1/1 14/2/1 43/3/1 42/4/1
f 16/5/1 17/6/1 46/7/1 45/8/1
f 29/9/1 1/10/1 30/11/1 57/12/1
f 14/2/1 15/13/1 44/14/1 43/3/1
f 1/10/1 8/15/1 37/16/1 30/11/1
f 15/13/1 16/5/1 45/8/1 44/14/1
f 8/15/1 7/17/1 36/18/1 37/16/1
f 53/19/2 54/20/2 82/21/2 81/22/2
f 16/5/3 15/13/3 14/2/3 13/1/3 20/23/3 19/24/3 18/25/3 17/6/3
f 27/26/1 29/9/1 57/12/1 56/27/1
f 17/6/1 18/25/1 47/28/1 46/7/1
f 12/29/1 13/1/1 42/4/1 41/30/1
f 18/25/1 19/24/1 48/31/1 47/28/1
f 11/32/1 12/29/1 41/30/1 40/33/1
f 19/24/1 20/23/1 49/34/1 48/31/1
f 10/35/1 11/32/1 40/33/1 39/36/1
f 20/23/1 21/37/1 50/38/1 49/34/1
f 9/39/1 10/35/1 39/36/1 38/40/1
f 21/37/1 22/41/1 51/42/1 50/38/1
f 2/43/4 9/39/4 38/40/4 31/44/4
f 22/41/1 23/45/1 52/46/1 51/42/1
f 3/47/5 2/43/5 31/44/5 32/48/5
f 23/45/1 24/49/1 53/19/1 52/46/1
f 4/50/1 3/47/1 32/48/1 33/51/1
f 24/49/1 25/52/1 54/20/1 53/19/1
f 5/53/1 4/50/1 33/51/1 34/54/1
f 25/52/1 26/55/1 55/56/1 54/20/1
f 6/57/1 5/53/1 34/54/1 35/58/1
f 26/55/1 27/26/1 56/27/1 55/56/1
f 7/17/1 6/57/1 35/58/1 36/18/1
f 73/59/6 74/60/6 75/61/6 76/62/6 77/63/6 70/64/6 71/65/6 72/66/6
f 34/54/7 33/51/7 61/67/7 62/68/7
f 54/20/8 55/56/8 83/69/8 82/21/8
f 35/58/9 34/54/9 62/68/9 63/70/9
f 55/56/10 56/27/10 84/71/10 83/69/10
f 36/18/11 35/58/11 63/70/11 64/72/11
f 57/12/12 30/11/12 58/73/12 85/74/12
f 37/16/13 36/18/13 64/72/13 65/75/13
f 44/14/14 45/8/14 73/59/14 72/66/14
f 56/27/15 57/12/15 85/74/15 84/71/15
f 30/11/16 37/16/16 65/75/16 58/73/16
f 43/3/17 44/14/17 72/66/17 71/65/17
f 45/8/18 46/7/18 74/60/18 73/59/18
f 42/4/19 43/3/19 71/65/19 70/64/19
f 46/7/20 47/28/20 75/61/20 74/60/20
f 41/30/21 42/4/21 70/64/21 69/76/21
f 47/28/22 48/31/22 76/62/22 75/61/22
f 40/33/23 41/30/23 69/76/23 68/77/23
f 48/31/24 49/34/24 77/63/24 76/62/24
f 39/36/25 40/33/25 68/77/25 67/78/25
f 49/34/26 50/38/26 78/79/26 77/63/26
f 38/40/27 39/36/27 67/78/27 66/80/27
f 50/38/28 51/42/28 79/81/28 78/79/28
f 31/44/29 38/40/29 66/80/29 59/82/29
f 51/42/30 52/46/30 80/83/30 79/81/30
f 32/48/31 31/44/31 59/82/31 60/84/31
f 52/46/32 53/19/32 81/22/32 80/83/32
f 33/51/33 32/48/33 60/84/33 61/67/33
f 83/69/34 78/79/34 79/81/34 80/83/34 81/22/34 82/21/34
f 21/37/35 26/55/35 25/52/35 24/49/35 23/45/35 22/41/35
f 6/57/36 3/47/36 4/50/36 5/53/36
f 9/39/37 11/32/37 10/35/37
f 20/23/38 13/1/38 21/37/38
f 70/64/39 77/63/39 78/79/39
f 78/79/40 84/71/40 85/74/40 58/73/40 65/75/40 64/72/40 63/70/40 60/84/40 59/82/40 66/80/40 68/77/40 69/76/40 70/64/40
f 21/37/41 13/1/41 12/29/41 11/32/41 9/39/41 2/43/41 3/47/41 6/57/41 7/17/41 8/15/41 1/10/41 29/9/41 27/26/41
f 68/77/42 66/80/42 67/78/42
f 60/84/43 63/70/43 62/68/43 61/67/43
f 27/26/44 26/55/44 21/37/44
f 84/71/45 78/79/45 83/69/45
l 27 28
l 28 29
